<svg xmlns="http://www.w3.org/2000/svg" width="20" height="20" viewBox="0 0 20 20" fill="none">
  <path d="M17.7776 13.3333H17.2221C16.9165 13.3333 16.6665 13.0833 16.6665 12.7778C16.6665 12.4722 16.9165 12.2222 17.2221 12.2222H17.7776C18.0832 12.2222 18.3332 12.4722 18.3332 12.7778C18.3332 13.0833 18.0832 13.3333 17.7776 13.3333Z" fill="#F4900C"/>
  <path d="M5.55566 17.5C5.55566 18.163 5.29227 18.7989 4.82343 19.2678C4.35459 19.7366 3.71871 20 3.05566 20C2.39262 20 1.75674 19.7366 1.2879 19.2678C0.819056 18.7989 0.555664 18.163 0.555664 17.5C0.555664 16.837 0.819056 16.2011 1.2879 15.7322C1.75674 15.2634 2.39262 15 3.05566 15C3.71871 15 4.35459 15.2634 4.82343 15.7322C5.29227 16.2011 5.55566 16.837 5.55566 17.5ZM18.889 17.5C18.889 18.163 18.6256 18.7989 18.1568 19.2678C17.6879 19.7366 17.052 20 16.389 20C15.726 20 15.0901 19.7366 14.6212 19.2678C14.1524 18.7989 13.889 18.163 13.889 17.5C13.889 16.837 14.1524 16.2011 14.6212 15.7322C15.0901 15.2634 15.726 15 16.389 15C17.052 15 17.6879 15.2634 18.1568 15.7322C18.6256 16.2011 18.889 16.837 18.889 17.5Z" fill="#292F33"/>
  <path d="M4.44428 17.5C4.44428 17.8683 4.29795 18.2216 4.03749 18.4821C3.77702 18.7425 3.42375 18.8889 3.05539 18.8889C2.68704 18.8889 2.33377 18.7425 2.0733 18.4821C1.81283 18.2216 1.6665 17.8683 1.6665 17.5C1.6665 17.1316 1.81283 16.7783 2.0733 16.5179C2.33377 16.2574 2.68704 16.1111 3.05539 16.1111C3.42375 16.1111 3.77702 16.2574 4.03749 16.5179C4.29795 16.7783 4.44428 17.1316 4.44428 17.5ZM17.7776 17.5C17.7776 17.8683 17.6313 18.2216 17.3708 18.4821C17.1104 18.7425 16.7571 18.8889 16.3887 18.8889C16.0204 18.8889 15.6671 18.7425 15.4066 18.4821C15.1462 18.2216 14.9998 17.8683 14.9998 17.5C14.9998 17.1316 15.1462 16.7783 15.4066 16.5179C15.6671 16.2574 16.0204 16.1111 16.3887 16.1111C16.7571 16.1111 17.1104 16.2574 17.3708 16.5179C17.6313 16.7783 17.7776 17.1316 17.7776 17.5Z" fill="#99AAB5"/>
  <path d="M3.25202 13.3789L4.70479 9.49613L4.44424 8.88891C4.44424 8.88891 3.93535 8.89335 3.88868 8.33335C3.84257 7.77391 5.22646 6.6228 5.55535 6.66669C5.8848 6.71113 5.55535 7.7778 5.55535 7.7778C5.55535 7.7778 6.84424 8.08724 6.66646 8.88891C6.48924 9.69113 5.34702 13.7156 5.34702 13.7156C5.34702 13.7156 6.31924 14.2017 6.66646 15C6.91591 15.5734 7.60035 15.5656 8.33313 15.5556C9.06591 15.5467 10.7737 15.5517 11.1109 14.4445C11.4476 13.3384 11.6665 12.7778 11.6665 12.7778L11.1109 12.2222L16.6665 11.1111C16.6665 11.1111 16.1715 12.2122 17.222 12.7778C18.4265 13.4272 18.8109 14.2606 19.4442 15.5556C19.8604 16.4078 19.6931 16.6095 18.8887 16.6667C17.8104 16.7445 16.422 16.8811 15.672 16.9639C15.007 17.0384 14.4031 17.8806 13.3587 17.8806C12.3142 17.8806 7.77424 17.9078 6.66646 17.7772C4.72424 17.55 4.02313 16.1106 1.11091 16.1106C-0.0402052 16.1106 0.522017 15.2422 1.12646 14.63C1.79813 13.9489 3.23813 13.2967 3.25202 13.3789Z" fill="#DD2E44"/>
  <path d="M12.2221 18.3333H10.5554C9.94434 18.3333 9.44434 17.8333 9.44434 17.2222C9.44434 16.6111 9.94434 16.1111 10.5554 16.1111H12.2221C12.8332 16.1111 13.3332 16.6111 13.3332 17.2222C13.3332 17.8333 12.8332 18.3333 12.2221 18.3333Z" fill="#BE1931"/>
  <path d="M10.5555 18.3333H7.77772C7.47217 18.3333 7.22217 18.0833 7.22217 17.7778C7.22217 17.4722 7.47217 17.2222 7.77772 17.2222H10.5555C10.8611 17.2222 11.1111 17.4722 11.1111 17.7778C11.1111 18.0833 10.8611 18.3333 10.5555 18.3333Z" fill="#BE1931"/>
  <path d="M12.2221 12.2222C11.3232 12.2222 10.8716 12.3922 10.5555 11.6667C10.2393 10.9411 10.5443 10.5555 11.111 10.5555C11.6777 10.5555 14.2932 10.455 15.5555 9.99999C16.8177 9.54499 17.2516 9.53833 17.2221 9.99999C17.1927 10.4617 16.6666 11.1111 16.6666 11.1111C16.6666 11.1111 15.9699 12.2222 12.2221 12.2222ZM7.77768 8.88888H5.97157C5.66602 8.88888 5.41602 8.63888 5.41602 8.33333C5.41602 8.02777 5.66602 7.77777 5.97157 7.77777H7.77768C8.08324 7.77777 8.33324 8.02777 8.33324 8.33333C8.33324 8.63888 8.08324 8.88888 7.77768 8.88888Z" fill="#292F33"/>
  <path d="M4.16645 8.88888C4.09282 8.88874 4.02225 8.85942 3.97019 8.80736C3.91813 8.7553 3.88882 8.68473 3.88867 8.6111V8.05555C3.88867 7.90277 4.01367 7.77777 4.16645 7.77777C4.31923 7.77777 4.44423 7.90277 4.44423 8.05555V8.6111C4.44423 8.76388 4.31923 8.88888 4.16645 8.88888Z" fill="#F4900C"/>
  <path d="M7.2565 7.22222H7.18706C7.04913 7.22178 6.91698 7.1668 6.81946 7.06927C6.72193 6.97174 6.66694 6.83959 6.6665 6.70167V5.52056C6.66694 5.38254 6.72201 5.2503 6.81965 5.15276C6.9173 5.05521 7.04959 5.00029 7.18761 5H7.25706C7.39498 5.00044 7.52713 5.05542 7.62466 5.15295C7.72219 5.25048 7.77718 5.38263 7.77762 5.52056V6.70167C7.77717 6.83969 7.72211 6.97192 7.62447 7.06946C7.52682 7.16701 7.39453 7.22193 7.2565 7.22222Z" fill="#292F33"/>
  <path d="M5.54574 8.36999L5.53352 8.35777C5.48328 8.30718 5.45508 8.23878 5.45508 8.16749C5.45508 8.09619 5.48328 8.02779 5.53352 7.97721L7.11685 6.39332C7.16744 6.34308 7.23584 6.31488 7.30713 6.31488C7.37843 6.31488 7.44683 6.34308 7.49741 6.39332L7.51019 6.40554C7.56043 6.45613 7.58863 6.52453 7.58863 6.59582C7.58863 6.66712 7.56043 6.73552 7.51019 6.7861L5.9263 8.36999C5.87572 8.42023 5.80732 8.44843 5.73602 8.44843C5.66473 8.44843 5.59632 8.42023 5.54574 8.36999Z" fill="#292F33"/>
</svg>